2024-08-27 12:49:05,711 - INFO - FFmpeg high-quality batch processing script started
2024-08-27 12:49:05,780 - INFO - Original Dimension: 3374 X 4500
2024-08-27 12:49:05,780 - INFO - New Dimension: 1078 X 1440
2024-08-27 12:49:05,780 - INFO - Starting high-quality video processing for dataset/yamaha_best.mp4
2024-08-27 12:49:05,780 - INFO - Executing FFmpeg command: ffmpeg -y -i dataset/yamaha_best.mp4 -preset slow -crf 17 -maxrate 15M -bufsize 25M -vf scale=1078:1440 -c:v libx264 -x264-params ref=6:me=umh:subme=8:rc-lookahead=60 -pix_fmt yuv420p -color_primaries bt709 -color_trc bt709 -colorspace bt709 -c:a aac -b:a 256k -ar 48000 -movflags +faststart out_without_10_bits/processed_yamaha_best.mp4
2024-08-27 12:49:05,807 - DEBUG - ffmpeg version 7.0.2 Copyright (c) 2000-2024 the FFmpeg developers
2024-08-27 12:49:05,807 - DEBUG - built with Apple clang version 15.0.0 (clang-1500.3.9.4)
2024-08-27 12:49:05,807 - DEBUG - configuration: --prefix=/opt/homebrew/Cellar/ffmpeg/7.0.2 --enable-shared --enable-pthreads --enable-version3 --cc=clang --host-cflags= --host-ldflags='-Wl,-ld_classic' --enable-ffplay --enable-gnutls --enable-gpl --enable-libaom --enable-libaribb24 --enable-libbluray --enable-libdav1d --enable-libharfbuzz --enable-libjxl --enable-libmp3lame --enable-libopus --enable-librav1e --enable-librist --enable-librubberband --enable-libsnappy --enable-libsrt --enable-libssh --enable-libsvtav1 --enable-libtesseract --enable-libtheora --enable-libvidstab --enable-libvmaf --enable-libvorbis --enable-libvpx --enable-libwebp --enable-libx264 --enable-libx265 --enable-libxml2 --enable-libxvid --enable-lzma --enable-libfontconfig --enable-libfreetype --enable-frei0r --enable-libass --enable-libopencore-amrnb --enable-libopencore-amrwb --enable-libopenjpeg --enable-libspeex --enable-libsoxr --enable-libzmq --enable-libzimg --disable-libjack --disable-indev=jack --enable-videotoolbox --enable-audiotoolbox --enable-neon
2024-08-27 12:49:05,807 - DEBUG - libavutil      59.  8.100 / 59.  8.100
2024-08-27 12:49:05,807 - DEBUG - libavcodec     61.  3.100 / 61.  3.100
2024-08-27 12:49:05,807 - DEBUG - libavformat    61.  1.100 / 61.  1.100
2024-08-27 12:49:05,807 - DEBUG - libavdevice    61.  1.100 / 61.  1.100
2024-08-27 12:49:05,807 - DEBUG - libavfilter    10.  1.100 / 10.  1.100
2024-08-27 12:49:05,807 - DEBUG - libswscale      8.  1.100 /  8.  1.100
2024-08-27 12:49:05,807 - DEBUG - libswresample   5.  1.100 /  5.  1.100
2024-08-27 12:49:05,807 - DEBUG - libpostproc    58.  1.100 / 58.  1.100
2024-08-27 12:49:05,841 - DEBUG - Input #0, mov,mp4,m4a,3gp,3g2,mj2, from 'dataset/yamaha_best.mp4':
2024-08-27 12:49:05,841 - DEBUG - Metadata:
2024-08-27 12:49:05,841 - DEBUG - major_brand     : isom
2024-08-27 12:49:05,841 - DEBUG - minor_version   : 512
2024-08-27 12:49:05,841 - DEBUG - compatible_brands: isomiso2avc1mp41
2024-08-27 12:49:05,841 - DEBUG - encoder         : Lavf61.1.100
2024-08-27 12:49:05,841 - DEBUG - Duration: 00:00:20.01, start: 0.000000, bitrate: 2174 kb/s
2024-08-27 12:49:05,841 - DEBUG - Stream #0:0[0x1](eng): Video: h264 (High 10) (avc1 / 0x31637661), yuv420p10le(tv, bt709, progressive), 3374x4500, 1993 kb/s, 30 fps, 30 tbr, 15360 tbn (default)
2024-08-27 12:49:05,841 - DEBUG - Metadata:
2024-08-27 12:49:05,841 - DEBUG - handler_name    : ?Mainconcept Video Media Handler
2024-08-27 12:49:05,841 - DEBUG - vendor_id       : [0][0][0][0]
2024-08-27 12:49:05,841 - DEBUG - encoder         : Lavc61.3.100 libx264
2024-08-27 12:49:05,841 - DEBUG - Stream #0:1[0x2](eng): Audio: aac (LC) (mp4a / 0x6134706D), 48000 Hz, stereo, fltp, 173 kb/s (default)
2024-08-27 12:49:05,841 - DEBUG - Metadata:
2024-08-27 12:49:05,841 - DEBUG - handler_name    : #Mainconcept MP4 Sound Media Handler
2024-08-27 12:49:05,841 - DEBUG - vendor_id       : [0][0][0][0]
2024-08-27 12:49:05,846 - DEBUG - Stream mapping:
2024-08-27 12:49:05,846 - DEBUG - Stream #0:0 -> #0:0 (h264 (native) -> h264 (libx264))
2024-08-27 12:49:05,846 - DEBUG - Stream #0:1 -> #0:1 (aac (native) -> aac (native))
2024-08-27 12:49:05,846 - DEBUG - Press [q] to stop, [?] for help
2024-08-27 12:49:05,949 - DEBUG - [libx264 @ 0x1377049e0] using cpu capabilities: ARMv8 NEON
2024-08-27 12:49:05,953 - DEBUG - [libx264 @ 0x1377049e0] profile High, level 5.0, 4:2:0, 8-bit
2024-08-27 12:49:05,953 - DEBUG - [libx264 @ 0x1377049e0] 264 - core 164 r3108 31e19f9 - H.264/MPEG-4 AVC codec - Copyleft 2003-2023 - http://www.videolan.org/x264.html - options: cabac=1 ref=6 deblock=1:0:0 analyse=0x3:0x113 me=umh subme=8 psy=1 psy_rd=1.00:0.00 mixed_ref=1 me_range=16 chroma_me=1 trellis=2 8x8dct=1 cqm=0 deadzone=21,11 fast_pskip=1 chroma_qp_offset=-2 threads=18 lookahead_threads=3 sliced_threads=0 nr=0 decimate=1 interlaced=0 bluray_compat=0 constrained_intra=0 bframes=3 b_pyramid=2 b_adapt=1 b_bias=0 direct=3 weightb=1 open_gop=0 weightp=2 keyint=250 keyint_min=25 scenecut=40 intra_refresh=0 rc_lookahead=60 rc=crf mbtree=1 crf=17.0 qcomp=0.60 qpmin=0 qpmax=69 qpstep=4 vbv_maxrate=15000 vbv_bufsize=25000 crf_max=0.0 nal_hrd=none filler=0 ip_ratio=1.40 aq=1:1.00
2024-08-27 12:49:05,954 - DEBUG - Output #0, mp4, to 'out_without_10_bits/processed_yamaha_best.mp4':
2024-08-27 12:49:05,954 - DEBUG - Metadata:
2024-08-27 12:49:05,954 - DEBUG - major_brand     : isom
2024-08-27 12:49:05,954 - DEBUG - minor_version   : 512
2024-08-27 12:49:05,954 - DEBUG - compatible_brands: isomiso2avc1mp41
2024-08-27 12:49:05,954 - DEBUG - encoder         : Lavf61.1.100
2024-08-27 12:49:05,954 - DEBUG - Stream #0:0(eng): Video: h264 (avc1 / 0x31637661), yuv420p(tv, bt709, progressive), 1078x1440, q=2-31, 30 fps, 15360 tbn (default)
2024-08-27 12:49:05,954 - DEBUG - Metadata:
2024-08-27 12:49:05,954 - DEBUG - handler_name    : ?Mainconcept Video Media Handler
2024-08-27 12:49:05,954 - DEBUG - vendor_id       : [0][0][0][0]
2024-08-27 12:49:05,954 - DEBUG - encoder         : Lavc61.3.100 libx264
2024-08-27 12:49:05,954 - DEBUG - Side data:
2024-08-27 12:49:05,954 - DEBUG - cpb: bitrate max/min/avg: 15000000/0/0 buffer size: 25000000 vbv_delay: N/A
2024-08-27 12:49:05,954 - DEBUG - Stream #0:1(eng): Audio: aac (LC) (mp4a / 0x6134706D), 48000 Hz, stereo, fltp, 256 kb/s (default)
2024-08-27 12:49:05,954 - DEBUG - Metadata:
2024-08-27 12:49:05,954 - DEBUG - handler_name    : #Mainconcept MP4 Sound Media Handler
2024-08-27 12:49:05,954 - DEBUG - vendor_id       : [0][0][0][0]
2024-08-27 12:49:05,954 - DEBUG - encoder         : Lavc61.3.100 aac
2024-08-27 12:49:06,856 - DEBUG - frame=    0 fps=0.0 q=0.0 size=       0KiB time=N/A bitrate=N/A speed=N/A
2024-08-27 12:49:07,361 - DEBUG - frame=   82 fps= 81 q=23.0 size=       0KiB time=00:00:02.66 bitrate=   0.1kbits/s speed=2.64x
2024-08-27 12:49:07,865 - DEBUG - frame=  176 fps=116 q=23.0 size=     256KiB time=00:00:05.80 bitrate= 361.6kbits/s speed=3.83x
2024-08-27 12:49:08,365 - DEBUG - frame=  274 fps=136 q=23.0 size=     768KiB time=00:00:09.06 bitrate= 694.0kbits/s speed=4.49x
2024-08-27 12:49:08,867 - DEBUG - frame=  329 fps=131 q=23.0 size=    1024KiB time=00:00:10.90 bitrate= 769.6kbits/s speed=4.33x
2024-08-27 12:49:09,372 - DEBUG - frame=  392 fps=130 q=23.0 size=    1792KiB time=00:00:13.00 bitrate=1129.3kbits/s speed= 4.3x
2024-08-27 12:49:09,675 - DEBUG - frame=  466 fps=132 q=23.0 size=    2048KiB time=00:00:15.46 bitrate=1084.8kbits/s speed=4.39x
2024-08-27 12:49:09,675 - DEBUG - [mp4 @ 0x147704d50] Starting second pass: moving the moov atom to the beginning of the file
2024-08-27 12:49:09,677 - DEBUG - [out#0/mp4 @ 0x1477040c0] video:1957KiB audio:547KiB subtitle:0KiB other streams:0KiB global headers:0KiB muxing overhead: 0.913576%
2024-08-27 12:49:09,677 - DEBUG - frame=  600 fps=157 q=-1.0 Lsize=    2527KiB time=00:00:19.93 bitrate=1038.6kbits/s speed= 5.2x
2024-08-27 12:49:09,677 - DEBUG - [libx264 @ 0x1377049e0] frame I:3     Avg QP: 4.97  size:101010
2024-08-27 12:49:09,677 - DEBUG - [libx264 @ 0x1377049e0] frame P:171   Avg QP:12.57  size:  6701
2024-08-27 12:49:09,677 - DEBUG - [libx264 @ 0x1377049e0] frame B:426   Avg QP:14.98  size:  1302
2024-08-27 12:49:09,677 - DEBUG - [libx264 @ 0x1377049e0] consecutive B-frames:  3.0%  6.0%  3.0% 88.0%
2024-08-27 12:49:09,677 - DEBUG - [libx264 @ 0x1377049e0] mb I  I16..4: 70.7% 18.5% 10.7%
2024-08-27 12:49:09,677 - DEBUG - [libx264 @ 0x1377049e0] mb P  I16..4:  0.9%  1.0%  0.2%  P16..4:  6.3%  1.8%  1.1%  0.0%  0.0%    skip:88.7%
2024-08-27 12:49:09,677 - DEBUG - [libx264 @ 0x1377049e0] mb B  I16..4:  0.0%  0.0%  0.0%  B16..8:  3.0%  0.4%  0.2%  direct: 0.1%  skip:96.2%  L0:38.7% L1:53.0% BI: 8.2%
2024-08-27 12:49:09,677 - DEBUG - [libx264 @ 0x1377049e0] 8x8 transform intra:35.6% inter:41.2%
2024-08-27 12:49:09,677 - DEBUG - [libx264 @ 0x1377049e0] direct mvs  spatial:97.7% temporal:2.3%
2024-08-27 12:49:09,677 - DEBUG - [libx264 @ 0x1377049e0] coded y,uvDC,uvAC intra: 23.0% 9.9% 7.9% inter: 1.2% 0.7% 0.3%
2024-08-27 12:49:09,677 - DEBUG - [libx264 @ 0x1377049e0] i16 v,h,dc,p: 86%  9%  2%  2%
2024-08-27 12:49:09,677 - DEBUG - [libx264 @ 0x1377049e0] i8 v,h,dc,ddl,ddr,vr,hd,vl,hu: 16% 11% 43%  4%  6%  5%  5%  5%  6%
2024-08-27 12:49:09,677 - DEBUG - [libx264 @ 0x1377049e0] i4 v,h,dc,ddl,ddr,vr,hd,vl,hu: 12% 21% 17%  7%  9%  7%  9%  7% 11%
2024-08-27 12:49:09,677 - DEBUG - [libx264 @ 0x1377049e0] i8c dc,h,v,p: 92%  5%  2%  1%
2024-08-27 12:49:09,677 - DEBUG - [libx264 @ 0x1377049e0] Weighted P-Frames: Y:1.2% UV:0.0%
2024-08-27 12:49:09,677 - DEBUG - [libx264 @ 0x1377049e0] ref P L0: 73.9%  6.7% 11.8%  2.9%  2.5%  2.1%  0.2%  0.0%
2024-08-27 12:49:09,677 - DEBUG - [libx264 @ 0x1377049e0] ref B L0: 86.3% 10.6%  2.1%  0.7%  0.3%
2024-08-27 12:49:09,677 - DEBUG - [libx264 @ 0x1377049e0] ref B L1: 97.7%  2.3%
2024-08-27 12:49:09,677 - DEBUG - [libx264 @ 0x1377049e0] kb/s:801.48
2024-08-27 12:49:09,683 - DEBUG - [aac @ 0x14777a0d0] Qavg: 25644.371
2024-08-27 12:49:09,743 - INFO - Video processing completed. Output saved to out_without_10_bits/processed_yamaha_best.mp4
2024-08-27 12:49:09,875 - INFO - Original Dimension: 3374 X 4500
2024-08-27 12:49:09,875 - INFO - New Dimension: 1078 X 1440
2024-08-27 12:49:09,875 - INFO - Starting high-quality video processing for dataset/yamaha.mp4
2024-08-27 12:49:09,875 - INFO - Executing FFmpeg command: ffmpeg -y -i dataset/yamaha.mp4 -preset slow -crf 17 -maxrate 15M -bufsize 25M -vf scale=1078:1440 -c:v libx264 -x264-params ref=6:me=umh:subme=8:rc-lookahead=60 -pix_fmt yuv420p -color_primaries bt709 -color_trc bt709 -colorspace bt709 -c:a aac -b:a 256k -ar 48000 -movflags +faststart out_without_10_bits/processed_yamaha.mp4
2024-08-27 12:49:09,900 - DEBUG - ffmpeg version 7.0.2 Copyright (c) 2000-2024 the FFmpeg developers
2024-08-27 12:49:09,900 - DEBUG - built with Apple clang version 15.0.0 (clang-1500.3.9.4)
2024-08-27 12:49:09,900 - DEBUG - configuration: --prefix=/opt/homebrew/Cellar/ffmpeg/7.0.2 --enable-shared --enable-pthreads --enable-version3 --cc=clang --host-cflags= --host-ldflags='-Wl,-ld_classic' --enable-ffplay --enable-gnutls --enable-gpl --enable-libaom --enable-libaribb24 --enable-libbluray --enable-libdav1d --enable-libharfbuzz --enable-libjxl --enable-libmp3lame --enable-libopus --enable-librav1e --enable-librist --enable-librubberband --enable-libsnappy --enable-libsrt --enable-libssh --enable-libsvtav1 --enable-libtesseract --enable-libtheora --enable-libvidstab --enable-libvmaf --enable-libvorbis --enable-libvpx --enable-libwebp --enable-libx264 --enable-libx265 --enable-libxml2 --enable-libxvid --enable-lzma --enable-libfontconfig --enable-libfreetype --enable-frei0r --enable-libass --enable-libopencore-amrnb --enable-libopencore-amrwb --enable-libopenjpeg --enable-libspeex --enable-libsoxr --enable-libzmq --enable-libzimg --disable-libjack --disable-indev=jack --enable-videotoolbox --enable-audiotoolbox --enable-neon
2024-08-27 12:49:09,900 - DEBUG - libavutil      59.  8.100 / 59.  8.100
2024-08-27 12:49:09,900 - DEBUG - libavcodec     61.  3.100 / 61.  3.100
2024-08-27 12:49:09,900 - DEBUG - libavformat    61.  1.100 / 61.  1.100
2024-08-27 12:49:09,900 - DEBUG - libavdevice    61.  1.100 / 61.  1.100
2024-08-27 12:49:09,900 - DEBUG - libavfilter    10.  1.100 / 10.  1.100
2024-08-27 12:49:09,900 - DEBUG - libswscale      8.  1.100 /  8.  1.100
2024-08-27 12:49:09,900 - DEBUG - libswresample   5.  1.100 /  5.  1.100
2024-08-27 12:49:09,900 - DEBUG - libpostproc    58.  1.100 / 58.  1.100
2024-08-27 12:49:09,994 - DEBUG - Input #0, mov,mp4,m4a,3gp,3g2,mj2, from 'dataset/yamaha.mp4':
2024-08-27 12:49:09,994 - DEBUG - Metadata:
2024-08-27 12:49:09,994 - DEBUG - major_brand     : mp42
2024-08-27 12:49:09,994 - DEBUG - minor_version   : 0
2024-08-27 12:49:09,994 - DEBUG - compatible_brands: mp42mp41
2024-08-27 12:49:09,994 - DEBUG - creation_time   : 2024-07-09T14:11:58.000000Z
2024-08-27 12:49:09,994 - DEBUG - Duration: 00:00:20.00, start: 0.000000, bitrate: 5396 kb/s
2024-08-27 12:49:09,994 - DEBUG - Stream #0:0[0x1](eng): Video: h264 (Main) (avc1 / 0x31637661), yuv420p(tv, bt709, progressive), 3374x4500, 5041 kb/s, 30 fps, 30 tbr, 30k tbn (default)
2024-08-27 12:49:09,995 - DEBUG - Metadata:
2024-08-27 12:49:09,995 - DEBUG - creation_time   : 2024-07-09T14:11:58.000000Z
2024-08-27 12:49:09,995 - DEBUG - handler_name    : ?Mainconcept Video Media Handler
2024-08-27 12:49:09,995 - DEBUG - vendor_id       : [0][0][0][0]
2024-08-27 12:49:09,995 - DEBUG - encoder         : AVC Coding
2024-08-27 12:49:09,995 - DEBUG - Stream #0:1[0x2](eng): Audio: aac (LC) (mp4a / 0x6134706D), 48000 Hz, stereo, fltp, 317 kb/s (default)
2024-08-27 12:49:09,995 - DEBUG - Metadata:
2024-08-27 12:49:09,995 - DEBUG - creation_time   : 2024-07-09T14:11:58.000000Z
2024-08-27 12:49:09,995 - DEBUG - handler_name    : #Mainconcept MP4 Sound Media Handler
2024-08-27 12:49:09,995 - DEBUG - vendor_id       : [0][0][0][0]
2024-08-27 12:49:09,997 - DEBUG - Stream mapping:
2024-08-27 12:49:09,997 - DEBUG - Stream #0:0 -> #0:0 (h264 (native) -> h264 (libx264))
2024-08-27 12:49:09,997 - DEBUG - Stream #0:1 -> #0:1 (aac (native) -> aac (native))
2024-08-27 12:49:09,997 - DEBUG - Press [q] to stop, [?] for help
2024-08-27 12:49:10,044 - DEBUG - [libx264 @ 0x12df05f70] using cpu capabilities: ARMv8 NEON
2024-08-27 12:49:10,045 - DEBUG - [libx264 @ 0x12df05f70] profile High, level 5.0, 4:2:0, 8-bit
2024-08-27 12:49:10,045 - DEBUG - [libx264 @ 0x12df05f70] 264 - core 164 r3108 31e19f9 - H.264/MPEG-4 AVC codec - Copyleft 2003-2023 - http://www.videolan.org/x264.html - options: cabac=1 ref=6 deblock=1:0:0 analyse=0x3:0x113 me=umh subme=8 psy=1 psy_rd=1.00:0.00 mixed_ref=1 me_range=16 chroma_me=1 trellis=2 8x8dct=1 cqm=0 deadzone=21,11 fast_pskip=1 chroma_qp_offset=-2 threads=18 lookahead_threads=3 sliced_threads=0 nr=0 decimate=1 interlaced=0 bluray_compat=0 constrained_intra=0 bframes=3 b_pyramid=2 b_adapt=1 b_bias=0 direct=3 weightb=1 open_gop=0 weightp=2 keyint=250 keyint_min=25 scenecut=40 intra_refresh=0 rc_lookahead=60 rc=crf mbtree=1 crf=17.0 qcomp=0.60 qpmin=0 qpmax=69 qpstep=4 vbv_maxrate=15000 vbv_bufsize=25000 crf_max=0.0 nal_hrd=none filler=0 ip_ratio=1.40 aq=1:1.00
2024-08-27 12:49:10,045 - DEBUG - Output #0, mp4, to 'out_without_10_bits/processed_yamaha.mp4':
2024-08-27 12:49:10,045 - DEBUG - Metadata:
2024-08-27 12:49:10,045 - DEBUG - major_brand     : mp42
2024-08-27 12:49:10,046 - DEBUG - minor_version   : 0
2024-08-27 12:49:10,046 - DEBUG - compatible_brands: mp42mp41
2024-08-27 12:49:10,046 - DEBUG - encoder         : Lavf61.1.100
2024-08-27 12:49:10,046 - DEBUG - Stream #0:0(eng): Video: h264 (avc1 / 0x31637661), yuv420p(tv, bt709, progressive), 1078x1440, q=2-31, 30 fps, 15360 tbn (default)
2024-08-27 12:49:10,046 - DEBUG - Metadata:
2024-08-27 12:49:10,046 - DEBUG - creation_time   : 2024-07-09T14:11:58.000000Z
2024-08-27 12:49:10,046 - DEBUG - handler_name    : ?Mainconcept Video Media Handler
2024-08-27 12:49:10,046 - DEBUG - vendor_id       : [0][0][0][0]
2024-08-27 12:49:10,046 - DEBUG - encoder         : Lavc61.3.100 libx264
2024-08-27 12:49:10,046 - DEBUG - Side data:
2024-08-27 12:49:10,046 - DEBUG - cpb: bitrate max/min/avg: 15000000/0/0 buffer size: 25000000 vbv_delay: N/A
2024-08-27 12:49:10,046 - DEBUG - Stream #0:1(eng): Audio: aac (LC) (mp4a / 0x6134706D), 48000 Hz, stereo, fltp, 256 kb/s (default)
2024-08-27 12:49:10,046 - DEBUG - Metadata:
2024-08-27 12:49:10,046 - DEBUG - creation_time   : 2024-07-09T14:11:58.000000Z
2024-08-27 12:49:10,046 - DEBUG - handler_name    : #Mainconcept MP4 Sound Media Handler
2024-08-27 12:49:10,046 - DEBUG - vendor_id       : [0][0][0][0]
2024-08-27 12:49:10,046 - DEBUG - encoder         : Lavc61.3.100 aac
2024-08-27 12:49:11,008 - DEBUG - frame=   60 fps=0.0 q=23.0 size=       0KiB time=00:00:01.93 bitrate=   0.2kbits/s speed=3.83x
2024-08-27 12:49:11,513 - DEBUG - frame=  202 fps=200 q=23.0 size=     256KiB time=00:00:06.66 bitrate= 314.6kbits/s speed=6.59x
2024-08-27 12:49:12,015 - DEBUG - frame=  302 fps=199 q=23.0 size=    1024KiB time=00:00:10.00 bitrate= 838.9kbits/s speed= 6.6x
2024-08-27 12:49:12,520 - DEBUG - frame=  383 fps=190 q=23.0 size=    1536KiB time=00:00:12.70 bitrate= 990.8kbits/s speed=6.29x
2024-08-27 12:49:12,683 - DEBUG - frame=  492 fps=195 q=23.0 size=    2048KiB time=00:00:16.33 bitrate=1027.2kbits/s speed=6.47x
2024-08-27 12:49:12,684 - DEBUG - [mp4 @ 0x12df16400] Starting second pass: moving the moov atom to the beginning of the file
2024-08-27 12:49:12,685 - DEBUG - [out#0/mp4 @ 0x12df16bd0] video:1929KiB audio:558KiB subtitle:0KiB other streams:0KiB global headers:0KiB muxing overhead: 0.919756%
2024-08-27 12:49:12,685 - DEBUG - frame=  600 fps=223 q=-1.0 Lsize=    2510KiB time=00:00:19.93 bitrate=1031.6kbits/s speed=7.41x
2024-08-27 12:49:12,686 - DEBUG - [libx264 @ 0x12df05f70] frame I:3     Avg QP: 4.83  size:101069
2024-08-27 12:49:12,686 - DEBUG - [libx264 @ 0x12df05f70] frame P:171   Avg QP:12.20  size:  6561
2024-08-27 12:49:12,686 - DEBUG - [libx264 @ 0x12df05f70] frame B:426   Avg QP:14.82  size:  1291
2024-08-27 12:49:12,686 - DEBUG - [libx264 @ 0x12df05f70] consecutive B-frames:  2.5%  7.3%  3.5% 86.7%
2024-08-27 12:49:12,686 - DEBUG - [libx264 @ 0x12df05f70] mb I  I16..4: 67.1% 22.2% 10.7%
2024-08-27 12:49:12,686 - DEBUG - [libx264 @ 0x12df05f70] mb P  I16..4:  1.1%  1.5%  0.3%  P16..4:  4.8%  1.6%  1.0%  0.0%  0.0%    skip:89.6%
2024-08-27 12:49:12,686 - DEBUG - [libx264 @ 0x12df05f70] mb B  I16..4:  0.0%  0.0%  0.0%  B16..8:  2.8%  0.5%  0.2%  direct: 0.1%  skip:96.4%  L0:42.8% L1:47.2% BI:10.0%
2024-08-27 12:49:12,686 - DEBUG - [libx264 @ 0x12df05f70] 8x8 transform intra:41.6% inter:39.4%
2024-08-27 12:49:12,686 - DEBUG - [libx264 @ 0x12df05f70] direct mvs  spatial:97.7% temporal:2.3%
2024-08-27 12:49:12,686 - DEBUG - [libx264 @ 0x12df05f70] coded y,uvDC,uvAC intra: 25.9% 8.2% 6.4% inter: 1.1% 0.6% 0.3%
2024-08-27 12:49:12,686 - DEBUG - [libx264 @ 0x12df05f70] i16 v,h,dc,p: 85% 11%  2%  2%
2024-08-27 12:49:12,686 - DEBUG - [libx264 @ 0x12df05f70] i8 v,h,dc,ddl,ddr,vr,hd,vl,hu: 17% 12% 46%  3%  4%  4%  4%  4%  5%
2024-08-27 12:49:12,686 - DEBUG - [libx264 @ 0x12df05f70] i4 v,h,dc,ddl,ddr,vr,hd,vl,hu: 18% 22% 18%  6%  8%  6%  7%  6%  9%
2024-08-27 12:49:12,686 - DEBUG - [libx264 @ 0x12df05f70] i8c dc,h,v,p: 93%  4%  2%  1%
2024-08-27 12:49:12,686 - DEBUG - [libx264 @ 0x12df05f70] Weighted P-Frames: Y:0.6% UV:0.0%
2024-08-27 12:49:12,686 - DEBUG - [libx264 @ 0x12df05f70] ref P L0: 73.5%  8.8% 10.0%  2.8%  2.3%  2.3%  0.2%
2024-08-27 12:49:12,686 - DEBUG - [libx264 @ 0x12df05f70] ref B L0: 87.1%  9.7%  2.1%  0.8%  0.3%
2024-08-27 12:49:12,686 - DEBUG - [libx264 @ 0x12df05f70] ref B L1: 98.6%  1.4%
2024-08-27 12:49:12,686 - DEBUG - [libx264 @ 0x12df05f70] kb/s:790.01
2024-08-27 12:49:12,694 - DEBUG - [aac @ 0x12df7f720] Qavg: 19097.348
2024-08-27 12:49:12,719 - INFO - Video processing completed. Output saved to out_without_10_bits/processed_yamaha.mp4
2024-08-27 12:49:12,833 - INFO - Original Dimension: 3374 X 4500
2024-08-27 12:49:12,833 - INFO - New Dimension: 1078 X 1440
2024-08-27 12:49:12,833 - INFO - Starting high-quality video processing for dataset/HOD.mp4
2024-08-27 12:49:12,833 - INFO - Executing FFmpeg command: ffmpeg -y -i dataset/HOD.mp4 -preset slow -crf 17 -maxrate 15M -bufsize 25M -vf scale=1078:1440 -c:v libx264 -x264-params ref=6:me=umh:subme=8:rc-lookahead=60 -pix_fmt yuv420p -color_primaries bt709 -color_trc bt709 -colorspace bt709 -c:a aac -b:a 256k -ar 48000 -movflags +faststart out_without_10_bits/processed_HOD.mp4
2024-08-27 12:49:12,857 - DEBUG - ffmpeg version 7.0.2 Copyright (c) 2000-2024 the FFmpeg developers
2024-08-27 12:49:12,857 - DEBUG - built with Apple clang version 15.0.0 (clang-1500.3.9.4)
2024-08-27 12:49:12,857 - DEBUG - configuration: --prefix=/opt/homebrew/Cellar/ffmpeg/7.0.2 --enable-shared --enable-pthreads --enable-version3 --cc=clang --host-cflags= --host-ldflags='-Wl,-ld_classic' --enable-ffplay --enable-gnutls --enable-gpl --enable-libaom --enable-libaribb24 --enable-libbluray --enable-libdav1d --enable-libharfbuzz --enable-libjxl --enable-libmp3lame --enable-libopus --enable-librav1e --enable-librist --enable-librubberband --enable-libsnappy --enable-libsrt --enable-libssh --enable-libsvtav1 --enable-libtesseract --enable-libtheora --enable-libvidstab --enable-libvmaf --enable-libvorbis --enable-libvpx --enable-libwebp --enable-libx264 --enable-libx265 --enable-libxml2 --enable-libxvid --enable-lzma --enable-libfontconfig --enable-libfreetype --enable-frei0r --enable-libass --enable-libopencore-amrnb --enable-libopencore-amrwb --enable-libopenjpeg --enable-libspeex --enable-libsoxr --enable-libzmq --enable-libzimg --disable-libjack --disable-indev=jack --enable-videotoolbox --enable-audiotoolbox --enable-neon
2024-08-27 12:49:12,857 - DEBUG - libavutil      59.  8.100 / 59.  8.100
2024-08-27 12:49:12,857 - DEBUG - libavcodec     61.  3.100 / 61.  3.100
2024-08-27 12:49:12,857 - DEBUG - libavformat    61.  1.100 / 61.  1.100
2024-08-27 12:49:12,857 - DEBUG - libavdevice    61.  1.100 / 61.  1.100
2024-08-27 12:49:12,857 - DEBUG - libavfilter    10.  1.100 / 10.  1.100
2024-08-27 12:49:12,857 - DEBUG - libswscale      8.  1.100 /  8.  1.100
2024-08-27 12:49:12,857 - DEBUG - libswresample   5.  1.100 /  5.  1.100
2024-08-27 12:49:12,857 - DEBUG - libpostproc    58.  1.100 / 58.  1.100
2024-08-27 12:49:12,934 - DEBUG - Input #0, mov,mp4,m4a,3gp,3g2,mj2, from 'dataset/HOD.mp4':
2024-08-27 12:49:12,934 - DEBUG - Metadata:
2024-08-27 12:49:12,934 - DEBUG - major_brand     : mp42
2024-08-27 12:49:12,934 - DEBUG - minor_version   : 0
2024-08-27 12:49:12,934 - DEBUG - compatible_brands: mp42mp41
2024-08-27 12:49:12,934 - DEBUG - creation_time   : 2024-06-21T15:37:35.000000Z
2024-08-27 12:49:12,934 - DEBUG - Duration: 00:00:22.13, start: 0.000000, bitrate: 10470 kb/s
2024-08-27 12:49:12,934 - DEBUG - Stream #0:0[0x2](eng): Audio: aac (LC) (mp4a / 0x6134706D), 48000 Hz, stereo, fltp, 317 kb/s (default)
2024-08-27 12:49:12,934 - DEBUG - Metadata:
2024-08-27 12:49:12,934 - DEBUG - creation_time   : 2024-06-21T15:37:45.000000Z
2024-08-27 12:49:12,934 - DEBUG - handler_name    : #Mainconcept MP4 Sound Media Handler
2024-08-27 12:49:12,934 - DEBUG - vendor_id       : [0][0][0][0]
2024-08-27 12:49:12,934 - DEBUG - Stream #0:1[0x1](eng): Video: h264 (Main) (avc1 / 0x31637661), yuv420p(tv, bt709, progressive), 3374x4500, 10095 kb/s, 30 fps, 30 tbr, 30k tbn (default)
2024-08-27 12:49:12,934 - DEBUG - Metadata:
2024-08-27 12:49:12,934 - DEBUG - creation_time   : 2024-06-21T15:37:50.000000Z
2024-08-27 12:49:12,934 - DEBUG - handler_name    : ?Mainconcept Video Media Handler
2024-08-27 12:49:12,934 - DEBUG - vendor_id       : [0][0][0][0]
2024-08-27 12:49:12,934 - DEBUG - encoder         : AVC Coding
2024-08-27 12:49:12,936 - DEBUG - Stream mapping:
2024-08-27 12:49:12,936 - DEBUG - Stream #0:1 -> #0:0 (h264 (native) -> h264 (libx264))
2024-08-27 12:49:12,936 - DEBUG - Stream #0:0 -> #0:1 (aac (native) -> aac (native))
2024-08-27 12:49:12,936 - DEBUG - Press [q] to stop, [?] for help
2024-08-27 12:49:12,977 - DEBUG - [libx264 @ 0x15980d1e0] using cpu capabilities: ARMv8 NEON
2024-08-27 12:49:12,979 - DEBUG - [libx264 @ 0x15980d1e0] profile High, level 5.0, 4:2:0, 8-bit
2024-08-27 12:49:12,979 - DEBUG - [libx264 @ 0x15980d1e0] 264 - core 164 r3108 31e19f9 - H.264/MPEG-4 AVC codec - Copyleft 2003-2023 - http://www.videolan.org/x264.html - options: cabac=1 ref=6 deblock=1:0:0 analyse=0x3:0x113 me=umh subme=8 psy=1 psy_rd=1.00:0.00 mixed_ref=1 me_range=16 chroma_me=1 trellis=2 8x8dct=1 cqm=0 deadzone=21,11 fast_pskip=1 chroma_qp_offset=-2 threads=18 lookahead_threads=3 sliced_threads=0 nr=0 decimate=1 interlaced=0 bluray_compat=0 constrained_intra=0 bframes=3 b_pyramid=2 b_adapt=1 b_bias=0 direct=3 weightb=1 open_gop=0 weightp=2 keyint=250 keyint_min=25 scenecut=40 intra_refresh=0 rc_lookahead=60 rc=crf mbtree=1 crf=17.0 qcomp=0.60 qpmin=0 qpmax=69 qpstep=4 vbv_maxrate=15000 vbv_bufsize=25000 crf_max=0.0 nal_hrd=none filler=0 ip_ratio=1.40 aq=1:1.00
2024-08-27 12:49:12,979 - DEBUG - Output #0, mp4, to 'out_without_10_bits/processed_HOD.mp4':
2024-08-27 12:49:12,979 - DEBUG - Metadata:
2024-08-27 12:49:12,979 - DEBUG - major_brand     : mp42
2024-08-27 12:49:12,979 - DEBUG - minor_version   : 0
2024-08-27 12:49:12,979 - DEBUG - compatible_brands: mp42mp41
2024-08-27 12:49:12,979 - DEBUG - encoder         : Lavf61.1.100
2024-08-27 12:49:12,979 - DEBUG - Stream #0:0(eng): Video: h264 (avc1 / 0x31637661), yuv420p(tv, bt709, progressive), 1078x1440, q=2-31, 30 fps, 15360 tbn (default)
2024-08-27 12:49:12,979 - DEBUG - Metadata:
2024-08-27 12:49:12,979 - DEBUG - creation_time   : 2024-06-21T15:37:50.000000Z
2024-08-27 12:49:12,979 - DEBUG - handler_name    : ?Mainconcept Video Media Handler
2024-08-27 12:49:12,979 - DEBUG - vendor_id       : [0][0][0][0]
2024-08-27 12:49:12,979 - DEBUG - encoder         : Lavc61.3.100 libx264
2024-08-27 12:49:12,979 - DEBUG - Side data:
2024-08-27 12:49:12,979 - DEBUG - cpb: bitrate max/min/avg: 15000000/0/0 buffer size: 25000000 vbv_delay: N/A
2024-08-27 12:49:12,979 - DEBUG - Stream #0:1(eng): Audio: aac (LC) (mp4a / 0x6134706D), 48000 Hz, stereo, fltp, 256 kb/s (default)
2024-08-27 12:49:12,979 - DEBUG - Metadata:
2024-08-27 12:49:12,979 - DEBUG - creation_time   : 2024-06-21T15:37:45.000000Z
2024-08-27 12:49:12,979 - DEBUG - handler_name    : #Mainconcept MP4 Sound Media Handler
2024-08-27 12:49:12,979 - DEBUG - vendor_id       : [0][0][0][0]
2024-08-27 12:49:12,979 - DEBUG - encoder         : Lavc61.3.100 aac
2024-08-27 12:49:13,947 - DEBUG - frame=   57 fps=0.0 q=23.0 size=       0KiB time=00:00:01.83 bitrate=   0.2kbits/s speed=3.62x
2024-08-27 12:49:14,453 - DEBUG - frame=  178 fps=176 q=23.0 size=     512KiB time=00:00:05.86 bitrate= 715.0kbits/s speed= 5.8x
2024-08-27 12:49:14,958 - DEBUG - frame=  299 fps=197 q=23.0 size=     768KiB time=00:00:09.90 bitrate= 635.5kbits/s speed=6.53x
2024-08-27 12:49:15,463 - DEBUG - frame=  404 fps=200 q=23.0 size=    1536KiB time=00:00:13.40 bitrate= 939.1kbits/s speed=6.63x
2024-08-27 12:49:15,881 - DEBUG - frame=  508 fps=201 q=23.0 size=    2560KiB time=00:00:16.86 bitrate=1243.4kbits/s speed=6.68x
2024-08-27 12:49:15,881 - DEBUG - [mp4 @ 0x159807900] Starting second pass: moving the moov atom to the beginning of the file
2024-08-27 12:49:15,882 - DEBUG - [out#0/mp4 @ 0x159807e60] video:2657KiB audio:691KiB subtitle:0KiB other streams:0KiB global headers:0KiB muxing overhead: 0.746685%
2024-08-27 12:49:15,882 - DEBUG - frame=  664 fps=225 q=-1.0 Lsize=    3374KiB time=00:00:22.06 bitrate=1252.4kbits/s speed=7.49x
2024-08-27 12:49:15,883 - DEBUG - [libx264 @ 0x15980d1e0] frame I:3     Avg QP: 4.00  size: 34603
2024-08-27 12:49:15,883 - DEBUG - [libx264 @ 0x15980d1e0] frame P:214   Avg QP:15.10  size:  5775
2024-08-27 12:49:15,883 - DEBUG - [libx264 @ 0x15980d1e0] frame B:447   Avg QP:21.36  size:  3088
2024-08-27 12:49:15,883 - DEBUG - [libx264 @ 0x15980d1e0] consecutive B-frames:  6.3%  9.3%  7.2% 77.1%
2024-08-27 12:49:15,883 - DEBUG - [libx264 @ 0x15980d1e0] mb I  I16..4: 85.8%  8.1%  6.1%
2024-08-27 12:49:15,883 - DEBUG - [libx264 @ 0x15980d1e0] mb P  I16..4:  0.2%  0.7%  0.4%  P16..4:  2.8%  1.0%  0.8%  0.0%  0.0%    skip:94.0%
2024-08-27 12:49:15,883 - DEBUG - [libx264 @ 0x15980d1e0] mb B  I16..4:  0.0%  0.1%  0.1%  B16..8:  2.2%  1.1%  0.5%  direct: 0.3%  skip:95.6%  L0:47.4% L1:37.5% BI:15.1%
2024-08-27 12:49:15,883 - DEBUG - [libx264 @ 0x15980d1e0] 8x8 transform intra:31.4% inter:20.6%
2024-08-27 12:49:15,883 - DEBUG - [libx264 @ 0x15980d1e0] direct mvs  spatial:97.5% temporal:2.5%
2024-08-27 12:49:15,883 - DEBUG - [libx264 @ 0x15980d1e0] coded y,uvDC,uvAC intra: 29.1% 23.0% 21.8% inter: 1.3% 1.0% 0.6%
2024-08-27 12:49:15,883 - DEBUG - [libx264 @ 0x15980d1e0] i16 v,h,dc,p: 89%  7%  3%  1%
2024-08-27 12:49:15,883 - DEBUG - [libx264 @ 0x15980d1e0] i8 v,h,dc,ddl,ddr,vr,hd,vl,hu: 14%  7% 53%  3%  4%  4%  4%  5%  6%
2024-08-27 12:49:15,883 - DEBUG - [libx264 @ 0x15980d1e0] i4 v,h,dc,ddl,ddr,vr,hd,vl,hu: 12% 13% 29%  6%  8%  7%  8%  7% 10%
2024-08-27 12:49:15,883 - DEBUG - [libx264 @ 0x15980d1e0] i8c dc,h,v,p: 86%  6%  5%  4%
2024-08-27 12:49:15,883 - DEBUG - [libx264 @ 0x15980d1e0] Weighted P-Frames: Y:0.5% UV:0.5%
2024-08-27 12:49:15,883 - DEBUG - [libx264 @ 0x15980d1e0] ref P L0: 70.5%  4.5% 11.3%  5.5%  4.0%  3.9%  0.4%
2024-08-27 12:49:15,883 - DEBUG - [libx264 @ 0x15980d1e0] ref B L0: 76.0% 13.4%  6.4%  2.9%  1.3%
2024-08-27 12:49:15,883 - DEBUG - [libx264 @ 0x15980d1e0] ref B L1: 95.6%  4.4%
2024-08-27 12:49:15,883 - DEBUG - [libx264 @ 0x15980d1e0] kb/s:983.16
2024-08-27 12:49:15,890 - DEBUG - [aac @ 0x1598801e0] Qavg: 3776.820
2024-08-27 12:49:15,913 - INFO - Video processing completed. Output saved to out_without_10_bits/processed_HOD.mp4
2024-08-27 12:49:16,063 - INFO - Original Dimension: 2700 X 5400
2024-08-27 12:49:16,063 - INFO - New Dimension: 720 X 1440
2024-08-27 12:49:16,063 - INFO - Starting high-quality video processing for dataset/cat.mp4
2024-08-27 12:49:16,063 - INFO - Executing FFmpeg command: ffmpeg -y -i dataset/cat.mp4 -preset slow -crf 17 -maxrate 15M -bufsize 25M -vf scale=720:1440 -c:v libx264 -x264-params ref=6:me=umh:subme=8:rc-lookahead=60 -pix_fmt yuv420p -color_primaries bt709 -color_trc bt709 -colorspace bt709 -c:a aac -b:a 256k -ar 48000 -movflags +faststart out_without_10_bits/processed_cat.mp4
2024-08-27 12:49:16,087 - DEBUG - ffmpeg version 7.0.2 Copyright (c) 2000-2024 the FFmpeg developers
2024-08-27 12:49:16,087 - DEBUG - built with Apple clang version 15.0.0 (clang-1500.3.9.4)
2024-08-27 12:49:16,087 - DEBUG - configuration: --prefix=/opt/homebrew/Cellar/ffmpeg/7.0.2 --enable-shared --enable-pthreads --enable-version3 --cc=clang --host-cflags= --host-ldflags='-Wl,-ld_classic' --enable-ffplay --enable-gnutls --enable-gpl --enable-libaom --enable-libaribb24 --enable-libbluray --enable-libdav1d --enable-libharfbuzz --enable-libjxl --enable-libmp3lame --enable-libopus --enable-librav1e --enable-librist --enable-librubberband --enable-libsnappy --enable-libsrt --enable-libssh --enable-libsvtav1 --enable-libtesseract --enable-libtheora --enable-libvidstab --enable-libvmaf --enable-libvorbis --enable-libvpx --enable-libwebp --enable-libx264 --enable-libx265 --enable-libxml2 --enable-libxvid --enable-lzma --enable-libfontconfig --enable-libfreetype --enable-frei0r --enable-libass --enable-libopencore-amrnb --enable-libopencore-amrwb --enable-libopenjpeg --enable-libspeex --enable-libsoxr --enable-libzmq --enable-libzimg --disable-libjack --disable-indev=jack --enable-videotoolbox --enable-audiotoolbox --enable-neon
2024-08-27 12:49:16,087 - DEBUG - libavutil      59.  8.100 / 59.  8.100
2024-08-27 12:49:16,087 - DEBUG - libavcodec     61.  3.100 / 61.  3.100
2024-08-27 12:49:16,087 - DEBUG - libavformat    61.  1.100 / 61.  1.100
2024-08-27 12:49:16,087 - DEBUG - libavdevice    61.  1.100 / 61.  1.100
2024-08-27 12:49:16,087 - DEBUG - libavfilter    10.  1.100 / 10.  1.100
2024-08-27 12:49:16,087 - DEBUG - libswscale      8.  1.100 /  8.  1.100
2024-08-27 12:49:16,087 - DEBUG - libswresample   5.  1.100 /  5.  1.100
2024-08-27 12:49:16,087 - DEBUG - libpostproc    58.  1.100 / 58.  1.100
2024-08-27 12:49:16,203 - DEBUG - Input #0, mov,mp4,m4a,3gp,3g2,mj2, from 'dataset/cat.mp4':
2024-08-27 12:49:16,203 - DEBUG - Metadata:
2024-08-27 12:49:16,203 - DEBUG - major_brand     : mp42
2024-08-27 12:49:16,203 - DEBUG - minor_version   : 0
2024-08-27 12:49:16,203 - DEBUG - compatible_brands: mp42mp41
2024-08-27 12:49:16,203 - DEBUG - creation_time   : 2024-07-27T10:00:02.000000Z
2024-08-27 12:49:16,203 - DEBUG - Duration: 00:00:02.04, start: 0.000000, bitrate: 10187 kb/s
2024-08-27 12:49:16,203 - DEBUG - Stream #0:0[0x2](eng): Audio: aac (LC) (mp4a / 0x6134706D), 48000 Hz, stereo, fltp, 314 kb/s (default)
2024-08-27 12:49:16,203 - DEBUG - Metadata:
2024-08-27 12:49:16,203 - DEBUG - creation_time   : 2024-07-27T10:00:05.000000Z
2024-08-27 12:49:16,203 - DEBUG - handler_name    : #Mainconcept MP4 Sound Media Handler
2024-08-27 12:49:16,203 - DEBUG - vendor_id       : [0][0][0][0]
2024-08-27 12:49:16,203 - DEBUG - Stream #0:1[0x1](eng): Video: h264 (Main) (avc1 / 0x31637661), yuv420p(tv, bt709, progressive), 2700x5400, 9627 kb/s, 25 fps, 25 tbr, 25k tbn (default)
2024-08-27 12:49:16,203 - DEBUG - Metadata:
2024-08-27 12:49:16,203 - DEBUG - creation_time   : 2024-07-27T10:00:05.000000Z
2024-08-27 12:49:16,204 - DEBUG - handler_name    : ?Mainconcept Video Media Handler
2024-08-27 12:49:16,204 - DEBUG - vendor_id       : [0][0][0][0]
2024-08-27 12:49:16,204 - DEBUG - encoder         : AVC Coding
2024-08-27 12:49:16,204 - DEBUG - Stream mapping:
2024-08-27 12:49:16,204 - DEBUG - Stream #0:1 -> #0:0 (h264 (native) -> h264 (libx264))
2024-08-27 12:49:16,204 - DEBUG - Stream #0:0 -> #0:1 (aac (native) -> aac (native))
2024-08-27 12:49:16,204 - DEBUG - Press [q] to stop, [?] for help
2024-08-27 12:49:16,246 - DEBUG - [libx264 @ 0x131f0d750] using cpu capabilities: ARMv8 NEON
2024-08-27 12:49:16,248 - DEBUG - [libx264 @ 0x131f0d750] profile High, level 4.0, 4:2:0, 8-bit
2024-08-27 12:49:16,248 - DEBUG - [libx264 @ 0x131f0d750] 264 - core 164 r3108 31e19f9 - H.264/MPEG-4 AVC codec - Copyleft 2003-2023 - http://www.videolan.org/x264.html - options: cabac=1 ref=6 deblock=1:0:0 analyse=0x3:0x113 me=umh subme=8 psy=1 psy_rd=1.00:0.00 mixed_ref=1 me_range=16 chroma_me=1 trellis=2 8x8dct=1 cqm=0 deadzone=21,11 fast_pskip=1 chroma_qp_offset=-2 threads=18 lookahead_threads=3 sliced_threads=0 nr=0 decimate=1 interlaced=0 bluray_compat=0 constrained_intra=0 bframes=3 b_pyramid=2 b_adapt=1 b_bias=0 direct=3 weightb=1 open_gop=0 weightp=2 keyint=250 keyint_min=25 scenecut=40 intra_refresh=0 rc_lookahead=60 rc=crf mbtree=1 crf=17.0 qcomp=0.60 qpmin=0 qpmax=69 qpstep=4 vbv_maxrate=15000 vbv_bufsize=25000 crf_max=0.0 nal_hrd=none filler=0 ip_ratio=1.40 aq=1:1.00
2024-08-27 12:49:16,248 - DEBUG - Output #0, mp4, to 'out_without_10_bits/processed_cat.mp4':
2024-08-27 12:49:16,248 - DEBUG - Metadata:
2024-08-27 12:49:16,248 - DEBUG - major_brand     : mp42
2024-08-27 12:49:16,248 - DEBUG - minor_version   : 0
2024-08-27 12:49:16,248 - DEBUG - compatible_brands: mp42mp41
2024-08-27 12:49:16,248 - DEBUG - encoder         : Lavf61.1.100
2024-08-27 12:49:16,248 - DEBUG - Stream #0:0(eng): Video: h264 (avc1 / 0x31637661), yuv420p(tv, bt709, progressive), 720x1440, q=2-31, 25 fps, 12800 tbn (default)
2024-08-27 12:49:16,248 - DEBUG - Metadata:
2024-08-27 12:49:16,248 - DEBUG - creation_time   : 2024-07-27T10:00:05.000000Z
2024-08-27 12:49:16,248 - DEBUG - handler_name    : ?Mainconcept Video Media Handler
2024-08-27 12:49:16,248 - DEBUG - vendor_id       : [0][0][0][0]
2024-08-27 12:49:16,248 - DEBUG - encoder         : Lavc61.3.100 libx264
2024-08-27 12:49:16,248 - DEBUG - Side data:
2024-08-27 12:49:16,248 - DEBUG - cpb: bitrate max/min/avg: 15000000/0/0 buffer size: 25000000 vbv_delay: N/A
2024-08-27 12:49:16,248 - DEBUG - Stream #0:1(eng): Audio: aac (LC) (mp4a / 0x6134706D), 48000 Hz, stereo, fltp, 256 kb/s (default)
2024-08-27 12:49:16,248 - DEBUG - Metadata:
2024-08-27 12:49:16,248 - DEBUG - creation_time   : 2024-07-27T10:00:05.000000Z
2024-08-27 12:49:16,248 - DEBUG - handler_name    : #Mainconcept MP4 Sound Media Handler
2024-08-27 12:49:16,248 - DEBUG - vendor_id       : [0][0][0][0]
2024-08-27 12:49:16,248 - DEBUG - encoder         : Lavc61.3.100 aac
2024-08-27 12:49:16,565 - DEBUG - [mp4 @ 0x131f16ae0] Starting second pass: moving the moov atom to the beginning of the file
2024-08-27 12:49:16,565 - DEBUG - [out#0/mp4 @ 0x131f08780] video:561KiB audio:1KiB subtitle:0KiB other streams:0KiB global headers:0KiB muxing overhead: 0.526518%
2024-08-27 12:49:16,565 - DEBUG - frame=   51 fps=0.0 q=-1.0 Lsize=     565KiB time=00:00:01.96 bitrate=2360.5kbits/s speed=5.43x
2024-08-27 12:49:16,565 - DEBUG - [libx264 @ 0x131f0d750] frame I:1     Avg QP: 7.12  size: 43822
2024-08-27 12:49:16,565 - DEBUG - [libx264 @ 0x131f0d750] frame P:13    Avg QP:16.06  size: 14169
2024-08-27 12:49:16,565 - DEBUG - [libx264 @ 0x131f0d750] frame B:37    Avg QP:21.39  size:  9349
2024-08-27 12:49:16,565 - DEBUG - [libx264 @ 0x131f0d750] consecutive B-frames:  2.0%  0.0% 11.8% 86.3%
2024-08-27 12:49:16,565 - DEBUG - [libx264 @ 0x131f0d750] mb I  I16..4: 67.1% 23.4%  9.5%
2024-08-27 12:49:16,566 - DEBUG - [libx264 @ 0x131f0d750] mb P  I16..4:  1.4%  5.7%  2.6%  P16..4:  5.0%  1.9%  1.0%  0.0%  0.0%    skip:82.3%
2024-08-27 12:49:16,566 - DEBUG - [libx264 @ 0x131f0d750] mb B  I16..4:  0.0%  1.2%  1.0%  B16..8:  6.6%  3.5%  1.2%  direct: 1.0%  skip:85.4%  L0:44.6% L1:34.5% BI:20.8%
2024-08-27 12:49:16,566 - DEBUG - [libx264 @ 0x131f0d750] 8x8 transform intra:46.2% inter:42.1%
2024-08-27 12:49:16,566 - DEBUG - [libx264 @ 0x131f0d750] direct mvs  spatial:75.7% temporal:24.3%
2024-08-27 12:49:16,566 - DEBUG - [libx264 @ 0x131f0d750] coded y,uvDC,uvAC intra: 57.4% 31.9% 11.6% inter: 5.2% 1.8% 0.3%
2024-08-27 12:49:16,566 - DEBUG - [libx264 @ 0x131f0d750] i16 v,h,dc,p: 94%  4%  2%  0%
2024-08-27 12:49:16,566 - DEBUG - [libx264 @ 0x131f0d750] i8 v,h,dc,ddl,ddr,vr,hd,vl,hu: 12%  9% 21%  6% 12% 11% 11%  8%  9%
2024-08-27 12:49:16,566 - DEBUG - [libx264 @ 0x131f0d750] i4 v,h,dc,ddl,ddr,vr,hd,vl,hu: 13% 11% 17%  7% 14% 11% 11%  8%  9%
2024-08-27 12:49:16,566 - DEBUG - [libx264 @ 0x131f0d750] i8c dc,h,v,p: 73% 11% 11%  5%
2024-08-27 12:49:16,566 - DEBUG - [libx264 @ 0x131f0d750] Weighted P-Frames: Y:0.0% UV:0.0%
2024-08-27 12:49:16,566 - DEBUG - [libx264 @ 0x131f0d750] ref P L0: 62.1%  4.5% 15.3%  8.0%  5.6%  4.5%
2024-08-27 12:49:16,566 - DEBUG - [libx264 @ 0x131f0d750] ref B L0: 85.3%  8.9%  3.4%  1.5%  0.9%
2024-08-27 12:49:16,566 - DEBUG - [libx264 @ 0x131f0d750] ref B L1: 97.3%  2.7%
2024-08-27 12:49:16,566 - DEBUG - [libx264 @ 0x131f0d750] kb/s:2250.71
2024-08-27 12:49:16,569 - DEBUG - [aac @ 0x131f808d0] Qavg: 65536.000
2024-08-27 12:49:16,590 - INFO - Video processing completed. Output saved to out_without_10_bits/processed_cat.mp4
2024-08-27 12:49:16,688 - INFO - Original Dimension: 2000 X 5836
2024-08-27 12:49:16,688 - INFO - New Dimension: 492 X 1440
2024-08-27 12:49:16,688 - INFO - Starting high-quality video processing for dataset/building.mp4
2024-08-27 12:49:16,688 - INFO - Executing FFmpeg command: ffmpeg -y -i dataset/building.mp4 -preset slow -crf 17 -maxrate 15M -bufsize 25M -vf scale=492:1440 -c:v libx264 -x264-params ref=6:me=umh:subme=8:rc-lookahead=60 -pix_fmt yuv420p -color_primaries bt709 -color_trc bt709 -colorspace bt709 -c:a aac -b:a 256k -ar 48000 -movflags +faststart out_without_10_bits/processed_building.mp4
2024-08-27 12:49:16,714 - DEBUG - ffmpeg version 7.0.2 Copyright (c) 2000-2024 the FFmpeg developers
2024-08-27 12:49:16,714 - DEBUG - built with Apple clang version 15.0.0 (clang-1500.3.9.4)
2024-08-27 12:49:16,714 - DEBUG - configuration: --prefix=/opt/homebrew/Cellar/ffmpeg/7.0.2 --enable-shared --enable-pthreads --enable-version3 --cc=clang --host-cflags= --host-ldflags='-Wl,-ld_classic' --enable-ffplay --enable-gnutls --enable-gpl --enable-libaom --enable-libaribb24 --enable-libbluray --enable-libdav1d --enable-libharfbuzz --enable-libjxl --enable-libmp3lame --enable-libopus --enable-librav1e --enable-librist --enable-librubberband --enable-libsnappy --enable-libsrt --enable-libssh --enable-libsvtav1 --enable-libtesseract --enable-libtheora --enable-libvidstab --enable-libvmaf --enable-libvorbis --enable-libvpx --enable-libwebp --enable-libx264 --enable-libx265 --enable-libxml2 --enable-libxvid --enable-lzma --enable-libfontconfig --enable-libfreetype --enable-frei0r --enable-libass --enable-libopencore-amrnb --enable-libopencore-amrwb --enable-libopenjpeg --enable-libspeex --enable-libsoxr --enable-libzmq --enable-libzimg --disable-libjack --disable-indev=jack --enable-videotoolbox --enable-audiotoolbox --enable-neon
2024-08-27 12:49:16,714 - DEBUG - libavutil      59.  8.100 / 59.  8.100
2024-08-27 12:49:16,714 - DEBUG - libavcodec     61.  3.100 / 61.  3.100
2024-08-27 12:49:16,714 - DEBUG - libavformat    61.  1.100 / 61.  1.100
2024-08-27 12:49:16,714 - DEBUG - libavdevice    61.  1.100 / 61.  1.100
2024-08-27 12:49:16,714 - DEBUG - libavfilter    10.  1.100 / 10.  1.100
2024-08-27 12:49:16,714 - DEBUG - libswscale      8.  1.100 /  8.  1.100
2024-08-27 12:49:16,714 - DEBUG - libswresample   5.  1.100 /  5.  1.100
2024-08-27 12:49:16,714 - DEBUG - libpostproc    58.  1.100 / 58.  1.100
2024-08-27 12:49:16,778 - DEBUG - Input #0, mov,mp4,m4a,3gp,3g2,mj2, from 'dataset/building.mp4':
2024-08-27 12:49:16,778 - DEBUG - Metadata:
2024-08-27 12:49:16,778 - DEBUG - major_brand     : mp42
2024-08-27 12:49:16,778 - DEBUG - minor_version   : 0
2024-08-27 12:49:16,778 - DEBUG - compatible_brands: mp42mp41
2024-08-27 12:49:16,778 - DEBUG - creation_time   : 2024-07-18T18:11:36.000000Z
2024-08-27 12:49:16,778 - DEBUG - Duration: 00:00:30.07, start: 0.000000, bitrate: 5465 kb/s
2024-08-27 12:49:16,778 - DEBUG - Stream #0:0[0x1](eng): Video: h264 (Main) (avc1 / 0x31637661), yuv420p(tv, bt709, progressive), 2000x5836, 5070 kb/s, 30 fps, 30 tbr, 30k tbn (default)
2024-08-27 12:49:16,778 - DEBUG - Metadata:
2024-08-27 12:49:16,778 - DEBUG - creation_time   : 2024-07-18T18:11:36.000000Z
2024-08-27 12:49:16,778 - DEBUG - handler_name    : ?Mainconcept Video Media Handler
2024-08-27 12:49:16,778 - DEBUG - vendor_id       : [0][0][0][0]
2024-08-27 12:49:16,778 - DEBUG - encoder         : AVC Coding
2024-08-27 12:49:16,778 - DEBUG - Stream #0:1[0x2](eng): Audio: aac (LC) (mp4a / 0x6134706D), 48000 Hz, stereo, fltp, 317 kb/s (default)
2024-08-27 12:49:16,778 - DEBUG - Metadata:
2024-08-27 12:49:16,778 - DEBUG - creation_time   : 2024-07-18T18:11:36.000000Z
2024-08-27 12:49:16,778 - DEBUG - handler_name    : #Mainconcept MP4 Sound Media Handler
2024-08-27 12:49:16,778 - DEBUG - vendor_id       : [0][0][0][0]
2024-08-27 12:49:16,780 - DEBUG - Stream mapping:
2024-08-27 12:49:16,780 - DEBUG - Stream #0:0 -> #0:0 (h264 (native) -> h264 (libx264))
2024-08-27 12:49:16,780 - DEBUG - Stream #0:1 -> #0:1 (aac (native) -> aac (native))
2024-08-27 12:49:16,780 - DEBUG - Press [q] to stop, [?] for help
2024-08-27 12:49:16,813 - DEBUG - [libx264 @ 0x12570fd60] using cpu capabilities: ARMv8 NEON
2024-08-27 12:49:16,814 - DEBUG - [libx264 @ 0x12570fd60] profile High, level 3.2, 4:2:0, 8-bit
2024-08-27 12:49:16,814 - DEBUG - [libx264 @ 0x12570fd60] 264 - core 164 r3108 31e19f9 - H.264/MPEG-4 AVC codec - Copyleft 2003-2023 - http://www.videolan.org/x264.html - options: cabac=1 ref=6 deblock=1:0:0 analyse=0x3:0x113 me=umh subme=8 psy=1 psy_rd=1.00:0.00 mixed_ref=1 me_range=16 chroma_me=1 trellis=2 8x8dct=1 cqm=0 deadzone=21,11 fast_pskip=1 chroma_qp_offset=-2 threads=18 lookahead_threads=3 sliced_threads=0 nr=0 decimate=1 interlaced=0 bluray_compat=0 constrained_intra=0 bframes=3 b_pyramid=2 b_adapt=1 b_bias=0 direct=3 weightb=1 open_gop=0 weightp=2 keyint=250 keyint_min=25 scenecut=40 intra_refresh=0 rc_lookahead=60 rc=crf mbtree=1 crf=17.0 qcomp=0.60 qpmin=0 qpmax=69 qpstep=4 vbv_maxrate=15000 vbv_bufsize=25000 crf_max=0.0 nal_hrd=none filler=0 ip_ratio=1.40 aq=1:1.00
2024-08-27 12:49:16,814 - DEBUG - Output #0, mp4, to 'out_without_10_bits/processed_building.mp4':
2024-08-27 12:49:16,814 - DEBUG - Metadata:
2024-08-27 12:49:16,814 - DEBUG - major_brand     : mp42
2024-08-27 12:49:16,814 - DEBUG - minor_version   : 0
2024-08-27 12:49:16,814 - DEBUG - compatible_brands: mp42mp41
2024-08-27 12:49:16,814 - DEBUG - encoder         : Lavf61.1.100
2024-08-27 12:49:16,814 - DEBUG - Stream #0:0(eng): Video: h264 (avc1 / 0x31637661), yuv420p(tv, bt709, progressive), 492x1440, q=2-31, 30 fps, 15360 tbn (default)
2024-08-27 12:49:16,814 - DEBUG - Metadata:
2024-08-27 12:49:16,814 - DEBUG - creation_time   : 2024-07-18T18:11:36.000000Z
2024-08-27 12:49:16,814 - DEBUG - handler_name    : ?Mainconcept Video Media Handler
2024-08-27 12:49:16,814 - DEBUG - vendor_id       : [0][0][0][0]
2024-08-27 12:49:16,814 - DEBUG - encoder         : Lavc61.3.100 libx264
2024-08-27 12:49:16,814 - DEBUG - Side data:
2024-08-27 12:49:16,814 - DEBUG - cpb: bitrate max/min/avg: 15000000/0/0 buffer size: 25000000 vbv_delay: N/A
2024-08-27 12:49:16,814 - DEBUG - Stream #0:1(eng): Audio: aac (LC) (mp4a / 0x6134706D), 48000 Hz, stereo, fltp, 256 kb/s (default)
2024-08-27 12:49:16,814 - DEBUG - Metadata:
2024-08-27 12:49:16,814 - DEBUG - creation_time   : 2024-07-18T18:11:36.000000Z
2024-08-27 12:49:16,814 - DEBUG - handler_name    : #Mainconcept MP4 Sound Media Handler
2024-08-27 12:49:16,814 - DEBUG - vendor_id       : [0][0][0][0]
2024-08-27 12:49:16,814 - DEBUG - encoder         : Lavc61.3.100 aac
2024-08-27 12:49:17,786 - DEBUG - frame=  150 fps=0.0 q=23.0 size=       0KiB time=00:00:04.93 bitrate=   0.1kbits/s speed=9.77x
2024-08-27 12:49:18,289 - DEBUG - frame=  390 fps=388 q=23.0 size=       0KiB time=00:00:12.93 bitrate=   0.0kbits/s speed=12.9x
2024-08-27 12:49:18,681 - DEBUG - frame=  640 fps=424 q=23.0 size=     256KiB time=00:00:21.26 bitrate=  98.6kbits/s speed=14.1x
2024-08-27 12:49:18,681 - DEBUG - [mp4 @ 0x125706aa0] Starting second pass: moving the moov atom to the beginning of the file
2024-08-27 12:49:18,681 - DEBUG - [out#0/mp4 @ 0x125714960] video:429KiB audio:8KiB subtitle:0KiB other streams:0KiB global headers:0KiB muxing overhead: 7.713236%
2024-08-27 12:49:18,681 - DEBUG - frame=  902 fps=475 q=-1.0 Lsize=     471KiB time=00:00:30.00 bitrate= 128.7kbits/s speed=15.8x
2024-08-27 12:49:18,681 - DEBUG - [libx264 @ 0x12570fd60] frame I:4     Avg QP: 4.89  size: 17540
2024-08-27 12:49:18,681 - DEBUG - [libx264 @ 0x12570fd60] frame P:232   Avg QP:15.78  size:  1272
2024-08-27 12:49:18,681 - DEBUG - [libx264 @ 0x12570fd60] frame B:666   Avg QP:14.71  size:   110
2024-08-27 12:49:18,681 - DEBUG - [libx264 @ 0x12570fd60] consecutive B-frames:  1.2%  0.4%  1.7% 96.7%
2024-08-27 12:49:18,681 - DEBUG - [libx264 @ 0x12570fd60] mb I  I16..4: 74.2% 18.7%  7.1%
2024-08-27 12:49:18,682 - DEBUG - [libx264 @ 0x12570fd60] mb P  I16..4:  0.0%  0.0%  0.0%  P16..4:  2.4%  0.7%  0.6%  0.0%  0.0%    skip:96.2%
2024-08-27 12:49:18,682 - DEBUG - [libx264 @ 0x12570fd60] mb B  I16..4:  0.0%  0.0%  0.0%  B16..8:  1.0%  0.1%  0.0%  direct: 0.0%  skip:98.8%  L0:51.0% L1:41.3% BI: 7.7%
2024-08-27 12:49:18,682 - DEBUG - [libx264 @ 0x12570fd60] 8x8 transform intra:19.4% inter:23.6%
2024-08-27 12:49:18,682 - DEBUG - [libx264 @ 0x12570fd60] direct mvs  spatial:98.2% temporal:1.8%
2024-08-27 12:49:18,682 - DEBUG - [libx264 @ 0x12570fd60] coded y,uvDC,uvAC intra: 7.2% 6.2% 5.7% inter: 0.4% 0.3% 0.1%
2024-08-27 12:49:18,682 - DEBUG - [libx264 @ 0x12570fd60] i16 v,h,dc,p: 95%  3%  1%  0%
2024-08-27 12:49:18,682 - DEBUG - [libx264 @ 0x12570fd60] i8 v,h,dc,ddl,ddr,vr,hd,vl,hu: 46%  7% 44%  0%  1%  1%  1%  0%  1%
2024-08-27 12:49:18,682 - DEBUG - [libx264 @ 0x12570fd60] i4 v,h,dc,ddl,ddr,vr,hd,vl,hu: 26% 28% 18%  3%  5%  5%  5%  4%  7%
2024-08-27 12:49:18,682 - DEBUG - [libx264 @ 0x12570fd60] i8c dc,h,v,p: 95%  3%  2%  0%
2024-08-27 12:49:18,682 - DEBUG - [libx264 @ 0x12570fd60] Weighted P-Frames: Y:0.4% UV:0.4%
2024-08-27 12:49:18,682 - DEBUG - [libx264 @ 0x12570fd60] ref P L0: 71.6%  4.2%  9.4%  4.8%  5.0%  4.8%  0.2%
2024-08-27 12:49:18,682 - DEBUG - [libx264 @ 0x12570fd60] ref B L0: 74.3% 13.6%  6.5%  3.4%  2.2%
2024-08-27 12:49:18,682 - DEBUG - [libx264 @ 0x12570fd60] ref B L1: 95.5%  4.5%
2024-08-27 12:49:18,682 - DEBUG - [libx264 @ 0x12570fd60] kb/s:116.74
2024-08-27 12:49:18,686 - DEBUG - [aac @ 0x12577e800] Qavg: 65536.000
2024-08-27 12:49:18,707 - INFO - Video processing completed. Output saved to out_without_10_bits/processed_building.mp4
2024-08-27 12:49:18,778 - INFO - Original Dimension: 1948 X 1062
2024-08-27 12:49:18,778 - INFO - New Dimension: 1440 X 784
2024-08-27 12:49:18,778 - INFO - Starting high-quality video processing for dataset/dishtv.mp4
2024-08-27 12:49:18,778 - INFO - Executing FFmpeg command: ffmpeg -y -i dataset/dishtv.mp4 -preset slow -crf 17 -maxrate 15M -bufsize 25M -vf scale=1440:784 -c:v libx264 -x264-params ref=6:me=umh:subme=8:rc-lookahead=60 -pix_fmt yuv420p -color_primaries bt709 -color_trc bt709 -colorspace bt709 -c:a aac -b:a 256k -ar 48000 -movflags +faststart out_without_10_bits/processed_dishtv.mp4
2024-08-27 12:49:18,803 - DEBUG - ffmpeg version 7.0.2 Copyright (c) 2000-2024 the FFmpeg developers
2024-08-27 12:49:18,803 - DEBUG - built with Apple clang version 15.0.0 (clang-1500.3.9.4)
2024-08-27 12:49:18,803 - DEBUG - configuration: --prefix=/opt/homebrew/Cellar/ffmpeg/7.0.2 --enable-shared --enable-pthreads --enable-version3 --cc=clang --host-cflags= --host-ldflags='-Wl,-ld_classic' --enable-ffplay --enable-gnutls --enable-gpl --enable-libaom --enable-libaribb24 --enable-libbluray --enable-libdav1d --enable-libharfbuzz --enable-libjxl --enable-libmp3lame --enable-libopus --enable-librav1e --enable-librist --enable-librubberband --enable-libsnappy --enable-libsrt --enable-libssh --enable-libsvtav1 --enable-libtesseract --enable-libtheora --enable-libvidstab --enable-libvmaf --enable-libvorbis --enable-libvpx --enable-libwebp --enable-libx264 --enable-libx265 --enable-libxml2 --enable-libxvid --enable-lzma --enable-libfontconfig --enable-libfreetype --enable-frei0r --enable-libass --enable-libopencore-amrnb --enable-libopencore-amrwb --enable-libopenjpeg --enable-libspeex --enable-libsoxr --enable-libzmq --enable-libzimg --disable-libjack --disable-indev=jack --enable-videotoolbox --enable-audiotoolbox --enable-neon
2024-08-27 12:49:18,803 - DEBUG - libavutil      59.  8.100 / 59.  8.100
2024-08-27 12:49:18,803 - DEBUG - libavcodec     61.  3.100 / 61.  3.100
2024-08-27 12:49:18,803 - DEBUG - libavformat    61.  1.100 / 61.  1.100
2024-08-27 12:49:18,803 - DEBUG - libavdevice    61.  1.100 / 61.  1.100
2024-08-27 12:49:18,803 - DEBUG - libavfilter    10.  1.100 / 10.  1.100
2024-08-27 12:49:18,803 - DEBUG - libswscale      8.  1.100 /  8.  1.100
2024-08-27 12:49:18,803 - DEBUG - libswresample   5.  1.100 /  5.  1.100
2024-08-27 12:49:18,803 - DEBUG - libpostproc    58.  1.100 / 58.  1.100
2024-08-27 12:49:18,834 - DEBUG - Input #0, mov,mp4,m4a,3gp,3g2,mj2, from 'dataset/dishtv.mp4':
2024-08-27 12:49:18,834 - DEBUG - Metadata:
2024-08-27 12:49:18,834 - DEBUG - major_brand     : mp42
2024-08-27 12:49:18,834 - DEBUG - minor_version   : 0
2024-08-27 12:49:18,834 - DEBUG - compatible_brands: mp42mp41
2024-08-27 12:49:18,834 - DEBUG - creation_time   : 2024-06-07T11:34:15.000000Z
2024-08-27 12:49:18,834 - DEBUG - Duration: 00:00:30.00, start: 0.000000, bitrate: 11347 kb/s
2024-08-27 12:49:18,834 - DEBUG - Stream #0:0[0x1](eng): Video: h264 (Main) (avc1 / 0x31637661), yuv420p(progressive), 1948x1062 [SAR 1:1 DAR 974:531], 11024 kb/s, 29.97 fps, 29.97 tbr, 30k tbn (default)
2024-08-27 12:49:18,834 - DEBUG - Metadata:
2024-08-27 12:49:18,834 - DEBUG - creation_time   : 2024-06-07T11:34:15.000000Z
2024-08-27 12:49:18,834 - DEBUG - handler_name    : ?Mainconcept Video Media Handler
2024-08-27 12:49:18,834 - DEBUG - vendor_id       : [0][0][0][0]
2024-08-27 12:49:18,834 - DEBUG - encoder         : AVC Coding
2024-08-27 12:49:18,834 - DEBUG - Stream #0:1[0x2](eng): Audio: aac (LC) (mp4a / 0x6134706D), 48000 Hz, stereo, fltp, 317 kb/s (default)
2024-08-27 12:49:18,834 - DEBUG - Metadata:
2024-08-27 12:49:18,834 - DEBUG - creation_time   : 2024-06-07T11:34:15.000000Z
2024-08-27 12:49:18,835 - DEBUG - handler_name    : #Mainconcept MP4 Sound Media Handler
2024-08-27 12:49:18,835 - DEBUG - vendor_id       : [0][0][0][0]
2024-08-27 12:49:18,836 - DEBUG - Stream mapping:
2024-08-27 12:49:18,836 - DEBUG - Stream #0:0 -> #0:0 (h264 (native) -> h264 (libx264))
2024-08-27 12:49:18,836 - DEBUG - Stream #0:1 -> #0:1 (aac (native) -> aac (native))
2024-08-27 12:49:18,836 - DEBUG - Press [q] to stop, [?] for help
2024-08-27 12:49:18,861 - DEBUG - [libx264 @ 0x137e364a0] using SAR=2983/2987
2024-08-27 12:49:18,861 - DEBUG - [libx264 @ 0x137e364a0] using cpu capabilities: ARMv8 NEON
2024-08-27 12:49:18,862 - DEBUG - [libx264 @ 0x137e364a0] profile High, level 4.0, 4:2:0, 8-bit
2024-08-27 12:49:18,862 - DEBUG - [libx264 @ 0x137e364a0] 264 - core 164 r3108 31e19f9 - H.264/MPEG-4 AVC codec - Copyleft 2003-2023 - http://www.videolan.org/x264.html - options: cabac=1 ref=6 deblock=1:0:0 analyse=0x3:0x113 me=umh subme=8 psy=1 psy_rd=1.00:0.00 mixed_ref=1 me_range=16 chroma_me=1 trellis=2 8x8dct=1 cqm=0 deadzone=21,11 fast_pskip=1 chroma_qp_offset=-2 threads=18 lookahead_threads=3 sliced_threads=0 nr=0 decimate=1 interlaced=0 bluray_compat=0 constrained_intra=0 bframes=3 b_pyramid=2 b_adapt=1 b_bias=0 direct=3 weightb=1 open_gop=0 weightp=2 keyint=250 keyint_min=25 scenecut=40 intra_refresh=0 rc_lookahead=60 rc=crf mbtree=1 crf=17.0 qcomp=0.60 qpmin=0 qpmax=69 qpstep=4 vbv_maxrate=15000 vbv_bufsize=25000 crf_max=0.0 nal_hrd=none filler=0 ip_ratio=1.40 aq=1:1.00
2024-08-27 12:49:18,862 - DEBUG - Output #0, mp4, to 'out_without_10_bits/processed_dishtv.mp4':
2024-08-27 12:49:18,862 - DEBUG - Metadata:
2024-08-27 12:49:18,862 - DEBUG - major_brand     : mp42
2024-08-27 12:49:18,862 - DEBUG - minor_version   : 0
2024-08-27 12:49:18,862 - DEBUG - compatible_brands: mp42mp41
2024-08-27 12:49:18,862 - DEBUG - encoder         : Lavf61.1.100
2024-08-27 12:49:18,862 - DEBUG - Stream #0:0(eng): Video: h264 (avc1 / 0x31637661), yuv420p(bt709, progressive), 1440x784 [SAR 23863:23895 DAR 974:531], q=2-31, 29.97 fps, 30k tbn (default)
2024-08-27 12:49:18,862 - DEBUG - Metadata:
2024-08-27 12:49:18,862 - DEBUG - creation_time   : 2024-06-07T11:34:15.000000Z
2024-08-27 12:49:18,862 - DEBUG - handler_name    : ?Mainconcept Video Media Handler
2024-08-27 12:49:18,862 - DEBUG - vendor_id       : [0][0][0][0]
2024-08-27 12:49:18,862 - DEBUG - encoder         : Lavc61.3.100 libx264
2024-08-27 12:49:18,862 - DEBUG - Side data:
2024-08-27 12:49:18,862 - DEBUG - cpb: bitrate max/min/avg: 15000000/0/0 buffer size: 25000000 vbv_delay: N/A
2024-08-27 12:49:18,862 - DEBUG - Stream #0:1(eng): Audio: aac (LC) (mp4a / 0x6134706D), 48000 Hz, stereo, fltp, 256 kb/s (default)
2024-08-27 12:49:18,862 - DEBUG - Metadata:
2024-08-27 12:49:18,862 - DEBUG - creation_time   : 2024-06-07T11:34:15.000000Z
2024-08-27 12:49:18,862 - DEBUG - handler_name    : #Mainconcept MP4 Sound Media Handler
2024-08-27 12:49:18,862 - DEBUG - vendor_id       : [0][0][0][0]
2024-08-27 12:49:18,862 - DEBUG - encoder         : Lavc61.3.100 aac
2024-08-27 12:49:19,843 - DEBUG - frame=   36 fps=0.0 q=23.0 size=     256KiB time=00:00:01.13 bitrate=1848.9kbits/s speed=2.25x
2024-08-27 12:49:20,343 - DEBUG - frame=  118 fps=117 q=23.0 size=    1024KiB time=00:00:03.87 bitrate=2167.4kbits/s speed=3.85x
2024-08-27 12:49:20,847 - DEBUG - frame=  189 fps=125 q=23.0 size=    1792KiB time=00:00:06.23 bitrate=2352.8kbits/s speed=4.14x
2024-08-27 12:49:21,352 - DEBUG - frame=  255 fps=127 q=23.0 size=    2560KiB time=00:00:08.44 bitrate=2484.3kbits/s speed= 4.2x
2024-08-27 12:49:21,856 - DEBUG - frame=  315 fps=125 q=23.0 size=    3328KiB time=00:00:10.44 bitrate=2610.5kbits/s speed=4.15x
2024-08-27 12:49:22,361 - DEBUG - frame=  377 fps=125 q=23.0 size=    4352KiB time=00:00:12.51 bitrate=2849.3kbits/s speed=4.14x
2024-08-27 12:49:22,865 - DEBUG - frame=  448 fps=127 q=23.0 size=    5120KiB time=00:00:14.91 bitrate=2812.2kbits/s speed=4.23x
2024-08-27 12:49:23,366 - DEBUG - frame=  530 fps=132 q=23.0 size=    5888KiB time=00:00:17.61 bitrate=2737.9kbits/s speed=4.37x
2024-08-27 12:49:23,871 - DEBUG - frame=  601 fps=133 q=23.0 size=    6400KiB time=00:00:19.98 bitrate=2623.2kbits/s speed=4.41x
2024-08-27 12:49:24,376 - DEBUG - frame=  672 fps=133 q=23.0 size=    7168KiB time=00:00:22.35 bitrate=2626.7kbits/s speed=4.44x
2024-08-27 12:49:24,879 - DEBUG - frame=  758 fps=137 q=23.0 size=    7936KiB time=00:00:25.22 bitrate=2577.3kbits/s speed=4.55x
2024-08-27 12:49:25,052 - DEBUG - frame=  827 fps=137 q=23.0 size=    8704KiB time=N/A bitrate=N/A speed=N/A
2024-08-27 12:49:25,052 - DEBUG - [mp4 @ 0x137e2d090] Starting second pass: moving the moov atom to the beginning of the file
2024-08-27 12:49:25,055 - DEBUG - [out#0/mp4 @ 0x137e36210] video:8197KiB audio:963KiB subtitle:0KiB other streams:0KiB global headers:0KiB muxing overhead: 0.366403%
2024-08-27 12:49:25,055 - DEBUG - frame=  899 fps=145 q=-1.0 Lsize=    9193KiB time=00:00:29.92 bitrate=2516.1kbits/s speed=4.81x
2024-08-27 12:49:25,055 - DEBUG - [libx264 @ 0x137e364a0] frame I:17    Avg QP:12.16  size:130374
2024-08-27 12:49:25,055 - DEBUG - [libx264 @ 0x137e364a0] frame P:261   Avg QP:15.96  size: 18145
2024-08-27 12:49:25,055 - DEBUG - [libx264 @ 0x137e364a0] frame B:621   Avg QP:19.56  size:  2320
2024-08-27 12:49:25,055 - DEBUG - [libx264 @ 0x137e364a0] consecutive B-frames:  3.2% 12.2%  5.3% 79.2%
2024-08-27 12:49:25,055 - DEBUG - [libx264 @ 0x137e364a0] mb I  I16..4: 12.3% 71.8% 15.9%
2024-08-27 12:49:25,055 - DEBUG - [libx264 @ 0x137e364a0] mb P  I16..4:  0.8%  2.4%  0.5%  P16..4: 33.9% 15.4%  8.6%  0.0%  0.0%    skip:38.3%
2024-08-27 12:49:25,055 - DEBUG - [libx264 @ 0x137e364a0] mb B  I16..4:  0.0%  0.1%  0.0%  B16..8: 24.8%  2.0%  0.3%  direct: 0.7%  skip:72.2%  L0:45.2% L1:48.9% BI: 5.9%
2024-08-27 12:49:25,055 - DEBUG - [libx264 @ 0x137e364a0] 8x8 transform intra:69.3% inter:54.3%
2024-08-27 12:49:25,055 - DEBUG - [libx264 @ 0x137e364a0] direct mvs  spatial:98.6% temporal:1.4%
2024-08-27 12:49:25,055 - DEBUG - [libx264 @ 0x137e364a0] coded y,uvDC,uvAC intra: 74.4% 79.5% 66.6% inter: 5.7% 9.9% 1.6%
2024-08-27 12:49:25,055 - DEBUG - [libx264 @ 0x137e364a0] i16 v,h,dc,p: 50% 13%  4% 33%
2024-08-27 12:49:25,055 - DEBUG - [libx264 @ 0x137e364a0] i8 v,h,dc,ddl,ddr,vr,hd,vl,hu: 21% 15% 11%  7%  8%  9%  9% 10% 10%
2024-08-27 12:49:25,055 - DEBUG - [libx264 @ 0x137e364a0] i4 v,h,dc,ddl,ddr,vr,hd,vl,hu: 18% 14%  7%  8% 13% 11% 10%  9%  9%
2024-08-27 12:49:25,055 - DEBUG - [libx264 @ 0x137e364a0] i8c dc,h,v,p: 43% 24% 22% 11%
2024-08-27 12:49:25,055 - DEBUG - [libx264 @ 0x137e364a0] Weighted P-Frames: Y:0.0% UV:0.0%
2024-08-27 12:49:25,055 - DEBUG - [libx264 @ 0x137e364a0] ref P L0: 62.4%  8.0% 16.0%  5.4%  4.5%  3.6%  0.1%
2024-08-27 12:49:25,055 - DEBUG - [libx264 @ 0x137e364a0] ref B L0: 85.3%  9.2%  3.8%  1.2%  0.5%
2024-08-27 12:49:25,055 - DEBUG - [libx264 @ 0x137e364a0] ref B L1: 95.8%  4.2%
2024-08-27 12:49:25,055 - DEBUG - [libx264 @ 0x137e364a0] kb/s:2238.27
2024-08-27 12:49:25,063 - DEBUG - [aac @ 0x137ea55b0] Qavg: 8099.187
2024-08-27 12:49:25,075 - INFO - Video processing completed. Output saved to out_without_10_bits/processed_dishtv.mp4
2024-08-27 12:49:25,075 - INFO - FFmpeg high-quality batch processing script finished
